# File created by Blade
# Date/Time:  Tue Apr 07 20:53:11 2015
# Frame Rate: 120.000 fps
#------------------------------------------------------
:FULLY-SPECIFIED
:DEGREES
1164
root -2.673951 33.028718 1.084628 13.236918 4.966029 -359.746340
Spine -11.138800 -7.295194 -2.031812
Head 6.034588 -4.422396 -2.469161
LeftShoulder -19.661468 37.959125 21.766940
LeftArm 59.544678 -53.784932 -62.578866
LeftForeArm 9.005554 0.000000 -2.523293
LeftHand 5.457015 0.000000 7.572648
LeftHandThumb1 -26.253704 0.000000 33.147579
RightShoulder -7.874217 4.579518 -31.214320
RightArm 10.706779 18.288323 45.401589
RightForeArm -13.231910 0.000000 -0.692121
RightHand 4.050679 0.000000 0.037558
RightHandThumb1 -24.326973 -0.000000 -32.862282
LeftUpLeg -12.679692 -11.593664 0.221519
LeftLeg 9.134457 -0.000000 -0.000000
LeftFoot -10.299055 14.230693 -11.356331
LeftToeBase -12.853345 -0.000000 0.000000
RightUpLeg -10.062451 -0.509388 -2.356679
RightLeg 4.797837 -0.000000 -0.000000
RightFoot -10.622304 -9.731629 10.843878
RightToeBase -5.961482 -0.000000 0.000000
1165
root -2.658152 33.029084 1.033270 13.235956 5.220615 -359.988899
Spine -11.044731 -7.284406 -1.609313
Head 5.859864 -4.521261 -2.642853
LeftShoulder -19.556582 37.920765 21.837808
LeftArm 59.422740 -53.710074 -62.485837
LeftForeArm 8.942196 -0.000000 -2.605910
LeftHand 5.445010 0.000000 7.406641
LeftHandThumb1 -26.253704 0.000000 33.147579
RightShoulder -7.858528 4.561862 -31.296842
RightArm 10.604573 18.353175 45.236916
RightForeArm -13.097168 -0.000000 -0.816301
RightHand 4.032767 -0.000000 0.063577
RightHandThumb1 -24.326973 -0.000000 -32.862282
LeftUpLeg -12.581090 -11.575516 0.473307
LeftLeg 8.666568 -0.000000 -0.000000
LeftFoot -10.160773 14.101691 -11.270836
LeftToeBase -12.559191 -0.000000 0.000000
RightUpLeg -10.024840 -0.266833 -2.158498
RightLeg 4.581142 -0.000000 -0.000000
RightFoot -10.537513 -10.007271 10.879442
RightToeBase -5.880440 -0.000000 0.000000
1166
root -2.640107 33.029769 0.979991 13.267258 5.414315 -360.257693
Spine -10.990174 -7.206716 -1.172538
Head 5.706486 -4.606757 -2.793117
LeftShoulder -19.491435 37.950458 21.888693
LeftArm 59.277996 -53.542596 -62.274978
LeftForeArm 8.710277 -0.000000 -2.733619
LeftHand 5.379398 -0.000000 7.288745
LeftHandThumb1 -26.253704 0.000000 33.147579
RightShoulder -7.866779 4.561435 -31.376232
RightArm 10.517985 18.438471 45.087403
RightForeArm -12.908730 -0.000000 -0.921316
RightHand 3.975411 -0.000000 0.207113
RightHandThumb1 -24.326973 -0.000000 -32.862282
LeftUpLeg -12.533421 -11.471495 0.740820
LeftLeg 8.237028 -0.000000 -0.000000
LeftFoot -10.025066 13.931645 -11.139751
LeftToeBase -12.402632 -0.000000 0.000000
RightUpLeg -10.094380 0.021694 -1.937709
RightLeg 4.481979 -0.000000 -0.000000
RightFoot -10.438557 -10.363902 10.788705
RightToeBase -6.023135 -0.000000 0.000000
1167
root -2.618599 33.028659 0.930251 13.277212 5.617475 -360.526870
Spine -10.925090 -7.189699 -0.711234
Head 5.568133 -4.651557 -2.965061
LeftShoulder -19.400083 37.886614 21.959934
LeftArm 59.208807 -53.510318 -62.259204
LeftForeArm 8.735915 -0.000000 -2.906704
LeftHand 5.174651 -0.000000 7.377024
LeftHandThumb1 -26.253704 0.000000 33.147579
RightShoulder -7.838122 4.617816 -31.484759
RightArm 10.411482 18.621078 44.974966
RightForeArm -12.880521 -0.000000 -0.997434
RightHand 3.982573 -0.000000 0.173355
RightHandThumb1 -24.326973 -0.000000 -32.862282
LeftUpLeg -12.476500 -11.394093 0.997292
LeftLeg 7.859191 -0.000000 -0.000000
LeftFoot -9.937793 13.761924 -11.022194
LeftToeBase -12.149282 -0.000000 0.000000
RightUpLeg -10.165398 0.255263 -1.703775
RightLeg 4.429533 -0.000000 -0.000000
RightFoot -10.384428 -10.724897 10.713498
RightToeBase -5.901840 -0.000000 0.000000
1168
root -2.597788 33.027412 0.880464 13.284741 5.743716 -360.795925
Spine -10.859102 -7.072716 -0.304079
Head 5.451254 -4.714996 -3.054709
LeftShoulder -19.264009 37.790596 22.123317
LeftArm 59.058042 -53.427841 -62.195711
LeftForeArm 8.687406 -0.000000 -3.049400
LeftHand 5.197892 -0.000000 7.360927
LeftHandThumb1 -26.253704 0.000000 33.147579
RightShoulder -7.865101 4.702404 -31.593640
RightArm 10.311036 18.746289 44.907257
RightForeArm -12.748857 -0.000000 -1.062410
RightHand 4.008923 -0.000000 0.302710
RightHandThumb1 -24.326973 -0.000000 -32.862282
LeftUpLeg -12.427067 -11.276798 1.239514
LeftLeg 7.509782 -0.000000 -0.000000
LeftFoot -9.863374 13.635178 -10.909674
LeftToeBase -11.927730 -0.000000 0.000000
RightUpLeg -10.283290 0.540703 -1.479692
RightLeg 4.447262 -0.000000 -0.000000
RightFoot -10.368535 -11.117675 10.663415
RightToeBase -5.595351 -0.000000 0.000000
1169
root -2.577908 33.025576 0.833012 13.295569 5.847434 -361.073818
Spine -10.806480 -6.990139 0.114340
Head 5.350305 -4.754864 -3.145039
LeftShoulder -19.167200 37.705303 22.241670
LeftArm 58.963366 -53.441950 -62.198294
LeftForeArm 8.694037 0.000000 -3.175656
LeftHand 5.131555 -0.000000 7.299653
LeftHandThumb1 -26.253704 0.000000 33.147579
RightShoulder -7.870886 4.847603 -31.695249
RightArm 10.232363 18.918757 44.858643
RightForeArm -12.805543 0.000000 -1.133962
RightHand 3.968052 -0.000000 0.185948
RightHandThumb1 -24.326973 -0.000000 -32.862282
LeftUpLeg -12.353161 -11.314815 1.510452
LeftLeg 7.102173 -0.000000 -0.000000
LeftFoot -9.815448 13.719939 -10.860857
LeftToeBase -11.799079 -0.000000 0.000000
RightUpLeg -10.432838 0.798093 -1.239996
RightLeg 4.516661 -0.000000 -0.000000
RightFoot -10.327606 -11.530687 10.583926
RightToeBase -5.489411 -0.000000 0.000000
1170
root -2.550885 33.023047 0.786186 13.290733 5.928739 -361.326827
Spine -10.734786 -6.892275 0.508478
Head 5.258208 -4.800856 -3.221405
LeftShoulder -19.066860 37.597932 22.365398
LeftArm 58.882689 -53.477619 -62.247583
LeftForeArm 8.672987 0.000000 -3.250701
LeftHand 5.169977 -0.000000 7.137005
LeftHandThumb1 -26.253704 0.000000 33.147579
RightShoulder -7.919618 4.896314 -31.780300
RightArm 10.300707 19.104154 44.840249
RightForeArm -12.868965 0.000000 -1.216200
RightHand 3.973634 -0.000000 0.361414
RightHandThumb1 -24.326973 -0.000000 -32.862282
LeftUpLeg -12.312050 -11.213931 1.724921
LeftLeg 6.814663 -0.000000 -0.000000
LeftFoot -9.789184 13.639103 -10.867509
LeftToeBase -11.333563 -0.000000 0.000000
RightUpLeg -10.597330 0.966724 -1.022828
RightLeg 4.654587 -0.000000 -0.000000
RightFoot -10.333482 -11.863605 10.485801
RightToeBase -5.395781 -0.000000 0.000000
1171
root -2.527632 33.020782 0.743809 13.259751 5.981476 -361.598130
Spine -10.641483 -6.829171 0.902298
Head 5.182083 -4.779917 -3.268190
LeftShoulder -19.050677 37.526474 22.435587
LeftArm 58.922583 -53.579331 -62.439151
LeftForeArm 8.781596 -0.000000 -3.283692
LeftHand 5.201042 -0.000000 7.054487
LeftHandThumb1 -26.253704 0.000000 33.147579
RightShoulder -7.959338 4.817776 -31.789993
RightArm 10.558108 19.298321 44.832907
RightForeArm -12.960503 -0.000000 -1.329452
RightHand 3.982648 -0.000000 0.354733
RightHandThumb1 -24.326973 -0.000000 -32.862282
LeftUpLeg -12.224414 -11.084669 1.946397
LeftLeg 6.497543 -0.000000 -0.000000
LeftFoot -9.743481 13.611146 -10.904354
LeftToeBase -10.911084 -0.000000 0.000000
RightUpLeg -10.747246 1.114811 -0.759609
RightLeg 4.803784 -0.000000 -0.000000
RightFoot -10.372522 -12.217755 10.415740
RightToeBase -5.170475 -0.000000 0.000000
1172
root -2.503356 33.020494 0.703700 13.192628 6.028353 -361.858476
Spine -10.512622 -6.784816 1.279125
Head 5.126189 -4.730635 -3.294988
LeftShoulder -19.044343 37.496133 22.480247
LeftArm 58.982198 -53.726686 -62.657009
LeftForeArm 8.765169 0.000000 -3.250120
LeftHand 5.221964 -0.000000 6.954671
LeftHandThumb1 -26.253704 0.000000 33.147579
RightShoulder -7.960343 4.958727 -31.859808
RightArm 10.604344 19.283669 44.812963
RightForeArm -13.021844 0.000000 -1.367713
RightHand 3.992352 -0.000000 0.381425
RightHandThumb1 -24.326973 -0.000000 -32.862282
LeftUpLeg -12.103408 -10.930703 2.152186
LeftLeg 6.197486 -0.000000 -0.000000
LeftFoot -9.588851 13.509653 -10.801873
LeftToeBase -10.963623 -0.000000 0.000000
RightUpLeg -10.887582 1.163897 -0.495829
RightLeg 5.026231 -0.000000 -0.000000
RightFoot -10.265341 -12.457835 9.976729
RightToeBase -5.335837 -0.000000 0.000000
